<svg width="38" height="39" viewBox="0 0 38 39" fill="none" xmlns="http://www.w3.org/2000/svg">
<path d="M34.8072 3.20379C32.7368 1.13427 30.1948 -0.00337957 27.6498 7.54157e-06C25.2221 0.00339466 22.9167 1.01953 21.0169 2.94341L13.9163 10.086C11.9306 12.0814 10.9242 14.4774 11.0063 17.022C11.0923 19.4713 12.2316 21.9108 14.2131 23.8919C15.3253 25.0033 17.1273 25.0033 18.2387 23.8919C19.3509 22.7792 19.3509 20.976 18.2387 19.8654C17.2797 18.906 16.7318 17.8264 16.6971 16.8302C16.6666 15.8873 17.0892 14.9694 17.9533 14.1006L25.0544 6.95841C25.059 6.95418 25.0633 6.94994 25.0671 6.94529C25.8957 6.11671 26.7683 5.69586 27.6574 5.69417C28.6799 5.6929 29.7887 6.23823 30.782 7.23192C31.9099 8.35771 33.4464 10.6042 31.0691 12.993L27.5795 16.494C27.4406 16.6337 27.3974 16.8899 27.4779 17.0694C28.0465 18.3484 28.3687 19.691 28.4131 21.0412C28.4322 21.5992 28.4051 22.15 28.3344 22.6924C28.2328 23.4731 28.5008 23.6349 29.0558 23.0777L35.1031 17.0105C39.0732 13.0213 38.9513 7.34285 34.8072 3.20379Z" fill="white" fill-opacity="0.8"/>
<path d="M23.78 14.2106C22.6673 13.1014 20.8675 13.1035 19.7569 14.2136C18.6438 15.3305 18.6464 17.1329 19.7599 18.2434C20.7201 19.1999 21.2659 20.2774 21.2998 21.2812C21.3319 22.2191 20.9103 23.1361 20.0453 24.0058L12.9459 31.1449C12.9416 31.1505 12.9374 31.1538 12.9332 31.1581C12.1033 31.9879 11.2307 32.4092 10.3403 32.4113C9.31701 32.4126 8.20646 31.8677 7.21615 30.8778C6.08866 29.7499 4.55303 27.4996 6.92697 25.1125L10.4199 21.6106C10.5588 21.4718 10.6016 21.2148 10.5215 21.0365C9.95378 19.7592 9.63116 18.4196 9.58416 17.0728C9.56596 16.5126 9.5939 15.9592 9.66545 15.4152C9.76834 14.6357 9.49949 14.4723 8.94442 15.0286L2.89334 21.0933C-1.0717 25.0791 -0.950611 30.7576 3.18971 34.9038C5.26178 36.9729 7.80424 38.1084 10.3509 38.1051C12.7685 38.1008 15.0531 37.0906 16.96 35.1845C16.9681 35.176 16.9761 35.168 16.9842 35.16L24.0844 28.0191C26.0735 26.0173 27.0782 23.6188 26.9901 21.0886C26.9097 18.6359 25.7682 16.1934 23.78 14.2106Z" fill="white" fill-opacity="0.8"/>
</svg>
